<svg width="24" height="24" viewBox="0 0 24 24" fill="none" xmlns="http://www.w3.org/2000/svg">
  <path d="M22.28 12.18c0-.71-.31-1.39-.86-1.85-.41-.35-.93-.53-1.47-.5h-1.34c-1.32-.01-2.43-.91-2.73-2.19-.31-1.31-.01-2.69.83-3.73.68-.83.68-2.03-.01-2.86-.41-.45-.98-.71-1.58-.71s-1.17.26-1.58.71c-.81.91-1.13 2.14-.88 3.32s1.17 2.15 2.45 2.53c.12.04.2.14.2.27v1.85c0 .16-.13.3-.3.3h-1.85c-.13 0-.23-.08-.27-.2-.37-1.28-1.36-2.21-2.53-2.45-1.18-.25-2.41.07-3.32.88-.39.38-.61.89-.61 1.44s.22 1.06.61 1.44c.91.81 2.14 1.13 3.32.88 1.17-.24 2.15-1.17 2.53-2.45.04-.12.14-.2.27-.2h1.85c.16 0 .3.13.3.3v1.85c0 .13-.08.23-.2.27-1.28.37-2.21 1.36-2.45 2.53-.25 1.18.07 2.41.88 3.32.38.39.89.61 1.44.61s1.06-.22 1.44-.61c.81-.91 1.13-2.14.88-3.32-.24-1.17-1.17-2.15-2.45-2.53-.12-.04-.2-.14-.2-.27v-1.85c0-.16.13-.3.3-.3h1.85c.13 0 .23.08.27.2.37 1.28 1.36 2.21 2.53 2.45 1.18.25 2.41-.07 3.32-.88.45-.41.71-.98.71-1.58s-.26-1.17-.71-1.58zM12.18 2.28c.71 0 1.39.31 1.85.86.35.41.53.93.5 1.47v1.34c.01 1.32.91 2.43 2.19 2.73 1.31.31 2.69.01 3.73-.83.83-.68 2.03-.68 2.86.01.45.41.71.98.71 1.58s-.26 1.17-.71 1.58c-.91.81-2.14 1.13-3.32.88s-2.15-1.17-2.53-2.45c-.04-.12-.14-.2-.27-.2h-1.85c-.16 0-.3.13-.3.3v1.85c0 .13.08.23.2.27 1.28.37 2.21 1.36 2.45 2.53.25 1.18-.07 2.41-.88 3.32-.38.39-.89.61-1.44.61s-1.06-.22-1.44-.61c-.81-.91-1.13-2.14-.88-3.32.24-1.17 1.17-2.15 2.45-2.53.12-.04.2-.14.2-.27v-1.85c0-.16-.13-.3-.3-.3h-1.85c-.13 0-.23.08-.27.2-1.28.37-2.21 1.36-2.53 2.53s-.07 2.41.88 3.32c.41.45.98.71 1.58.71s1.17-.26 1.58-.71c.81-.91 1.13-2.14.88-3.32s-1.17-2.15-2.45-2.53c-.12-.04-.2-.14-.2-.27v-1.85c0-.16.13-.3.3-.3h1.85c.13 0 .23-.08.27-.2.37-1.28 1.36-2.21 2.53-2.45 1.18-.25 2.41.07 3.32.88.45.41.71.98.71 1.58s-.26 1.17-.71 1.58c-.91.81-2.14 1.13-3.32.88s-2.15-1.17-2.53-2.45c-.04-.12-.14-.2-.27-.2h-1.85c-.16 0-.3.13-.3.3v1.85c0 .13.08.23.2.27 1.28.37 2.21 1.36 2.45 2.53.25 1.18-.07 2.41-.88 3.32-.38.39-.89.61-1.44.61s-1.06-.22-1.44-.61c-.81-.91-1.13-2.14-.88-3.32.24-1.17 1.17-2.15 2.45-2.53.12-.04.2-.14.2-.27v-1.85c0-.16-.13-.3-.3-.3h-1.85c-.13 0-.23.08-.27.2-.37 1.28-1.36 2.21-2.53 2.45-1.18.25-2.41-.07-3.32.88-.83.83-2.03.83-2.86 0-.45-.41-.71-.98-.71-1.58s.26-1.17.71-1.58c.91-.81 2.14-1.13 3.32-.88 1.17.24 2.15 1.17 2.53 2.45.04.12.14.2.27.2h1.85c.16 0 .3-.13.3-.3v-1.85c0-.13-.08-.23-.2-.27-1.28-.37-2.21-1.36-2.45-2.53-.25-1.18.07-2.41.88-3.32.38-.39.89-.61 1.44-.61s1.06.22 1.44.61c.81.91 1.13 2.14.88 3.32.24 1.17 1.17 2.15 2.45 2.53.12.04.2.14.2.27v1.85c0 .16-.13.3-.3.3h-1.85c-.13 0-.23-.08-.27-.2-.37-1.28-1.36-2.21-2.53-2.45-1.18-.25-2.41.07-3.32-.88z" fill="#10a37f"/>
</svg>
