<svg width="24" height="24" viewBox="0 0 24 24" fill="none" xmlns="http://www.w3.org/2000/svg">
  <path d="M12 17C10.5 17 9.17 16.33 8.34 15.17C7.5 14 7.17 12.5 7.5 11C7.83 9.5 8.83 8.17 10.17 7.58C11.5 7 13 7.17 14.33 8.17C15.67 9.17 16.5 10.83 16.5 12.5C16.5 14.17 15.67 15.83 14.33 16.83C13 17.83 11.5 18 10.17 17.42C8.83 16.83 7.83 15.5 7.5 14" stroke="#0081FB" stroke-width="2" stroke-linecap="round" stroke-linejoin="round"/>
  <path d="M12 17C13.5 17 14.83 16.33 15.66 15.17C16.5 14 16.83 12.5 16.5 11C16.17 9.5 15.17 8.17 13.83 7.58C12.5 7 11 7.17 9.67 8.17C8.33 9.17 7.5 10.83 7.5 12.5C7.5 14.17 8.33 15.83 9.67 16.83C11 17.83 12.5 18 13.83 17.42C15.17 16.83 16.17 15.5 16.5 14" stroke="#0081FB" stroke-width="2" stroke-linecap="round" stroke-linejoin="round"/>
</svg>
